<svg xmlns="http://www.w3.org/2000/svg" version="1.1" xmlns:xlink="http://www.w3.org/1999/xlink" xmlns:svgjs="http://svgjs.dev/svgjs" width="1000" height="1000" viewBox="0 0 1000 1000"><rect width="1000" height="1000" fill="#ffffff"></rect><g transform="matrix(0.7,0,0,0.7,150,106.25)"><svg viewBox="0 0 320 360" data-background-color="#ffffff" preserveAspectRatio="xMidYMid meet" height="1125" width="1000" xmlns="http://www.w3.org/2000/svg" xmlns:xlink="http://www.w3.org/1999/xlink"><g id="tight-bounds" transform="matrix(1,0,0,1,0,0)"><svg viewBox="0 0 320 360" height="360" width="320"><g><svg></svg></g><g><svg viewBox="0 0 320 360" height="360" width="320"><g><path xmlns="http://www.w3.org/2000/svg" d="M159.823 340.15v0c-7.794 0-14.524-4.96-16.65-12.399-1.063-3.897-5.314-6.022-8.856-4.96-1.417 0.354-2.834 1.417-3.897 2.834-5.668 7.794-16.296 9.919-24.444 4.251-4.96-3.188-7.794-8.856-7.439-14.878 0-3.897-3.188-7.439-7.085-7.44-1.771 0-3.188 0.354-4.605 1.417-7.794 5.668-18.775 4.251-24.444-3.542-3.543-4.605-4.605-10.628-2.479-16.296 1.417-3.897-0.709-7.794-4.606-9.21-1.417-0.354-3.188-0.354-4.605 0-9.211 3.188-19.13-1.771-22.318-10.982-1.771-5.314-1.063-11.69 2.48-16.296 2.48-3.188 1.771-7.794-1.417-9.919-1.417-1.063-2.834-1.417-4.605-1.417-9.565 0.354-17.713-7.439-17.713-17.004 0-6.022 2.834-11.336 7.439-14.879 3.188-2.126 3.897-6.731 1.771-9.919-1.063-1.417-2.126-2.126-3.896-2.834-9.211-2.834-14.524-12.753-11.691-21.963 1.771-5.668 6.022-9.919 11.691-11.691 3.897-1.063 6.022-5.314 4.959-8.856-0.354-1.417-1.417-2.834-2.834-3.897-7.794-5.668-9.919-16.296-4.251-24.443 3.188-4.96 8.856-7.794 14.879-7.44 3.897 0 7.439-3.188 7.439-7.085 0-1.771-0.354-3.188-1.417-4.605-5.668-7.794-4.251-18.775 3.543-24.443 4.605-3.543 10.628-4.605 16.295-2.48 3.897 1.417 7.794-0.709 9.211-4.605 0.354-1.417 0.354-3.188 0-4.606-3.188-9.211 1.771-19.13 10.982-22.318 5.314-1.771 11.69-1.063 16.295 2.48 3.188 2.48 7.794 1.771 9.919-1.417 1.063-1.417 1.417-2.834 1.417-4.605-0.354-9.565 7.439-17.713 17.005-17.713 6.022 0 11.336 2.834 14.878 7.439 2.126 3.188 6.731 3.897 9.919 1.772 1.417-1.063 2.126-2.126 2.834-3.897 2.834-9.211 12.753-14.524 21.964-11.69 5.668 1.771 9.919 6.022 11.69 11.69v0c0.709 2.48 2.834 4.605 5.668 4.96 2.834 0.354 5.314-0.709 7.085-2.835 5.668-7.794 16.296-9.919 24.444-4.251 4.96 3.188 7.794 8.856 7.439 14.879 0 3.897 3.188 7.439 7.085 7.439 1.771 0 3.188-0.354 4.605-1.417 7.794-5.668 18.775-4.251 24.444 3.543 3.543 4.605 4.605 10.628 2.48 16.296-1.417 3.897 0.709 7.794 4.605 9.21 1.417 0.354 3.188 0.354 4.605 0 9.211-3.188 19.13 1.771 22.318 10.982 1.771 5.314 1.063 11.69-2.48 16.296-2.48 3.188-1.771 7.794 1.417 9.919 1.417 1.063 2.834 1.417 4.606 1.417 9.565-0.354 17.713 7.439 17.712 17.004 0 6.022-2.834 11.336-7.439 14.878-2.48 1.417-3.543 4.251-3.188 7.085 0.354 2.834 2.48 4.96 4.959 5.669 9.211 2.834 14.524 12.753 11.691 21.963-1.771 5.668-6.022 9.919-11.691 11.691-3.897 1.063-6.022 5.314-4.959 8.856 0.354 1.417 1.417 2.834 2.834 3.897 7.794 5.668 9.919 16.296 4.251 24.443-3.188 4.96-8.856 7.794-14.879 7.439-2.834 0-5.314 1.417-6.731 3.897-1.417 2.48-1.063 5.314 0.709 7.794 5.668 7.794 4.251 18.775-3.543 24.443-4.605 3.543-10.628 4.605-16.295 2.48-3.897-1.417-7.794 0.709-9.211 4.605-0.354 1.417-0.354 3.188 0 4.606 3.188 9.211-1.771 19.13-10.982 22.317-5.314 1.771-11.69 1.063-16.295-2.479-3.188-2.48-7.794-1.771-9.919 1.417-1.063 1.417-1.417 2.834-1.417 4.605 0.354 9.565-7.439 17.713-17.005 17.713-6.022 0-11.336-2.834-14.878-7.44-1.417-2.126-4.251-3.543-7.085-2.834-2.834 0.354-4.96 2.48-5.668 4.96-2.126 7.439-8.856 12.399-16.65 12.399zM136.088 312.518c1.063 0 1.771 0 2.834 0.354 6.731 1.063 12.045 5.668 13.816 12.045 1.063 3.897 5.314 6.022 8.856 4.605 2.126-0.709 3.897-2.48 4.605-4.605 2.834-9.211 12.753-14.524 21.964-11.691 3.543 1.063 7.085 3.543 9.211 6.731 2.48 3.188 6.731 3.897 10.273 1.417 1.771-1.417 2.834-3.543 2.834-5.668-0.354-9.565 7.439-17.713 17.004-17.712 3.897 0 7.794 1.063 10.982 3.542 3.188 2.48 7.794 1.771 9.919-1.417 1.417-1.771 1.771-4.605 1.063-6.731-3.188-9.211 1.417-19.13 10.627-22.318 3.897-1.417 7.794-1.417 11.691 0 3.897 1.417 7.794-0.709 9.21-4.605 0.709-2.126 0.354-4.96-1.062-6.731-5.668-7.794-4.251-18.775 3.542-24.443 3.188-2.48 7.085-3.543 10.982-3.543 3.897 0 7.085-3.188 7.439-7.085 0-2.48-1.063-4.605-3.188-6.022-7.794-5.668-9.919-16.296-4.251-24.443 2.126-3.188 5.314-5.668 9.211-6.731 3.897-1.063 6.022-5.314 4.605-8.857-0.709-2.126-2.48-3.897-4.605-4.605-9.211-2.834-14.524-12.753-11.691-21.964 1.063-3.543 3.543-7.085 6.731-9.21 3.188-2.48 3.897-7.085 1.417-10.273-1.417-1.771-3.543-2.834-5.668-2.834-9.565 0.354-17.713-7.439-17.713-17.005 0-3.897 1.063-7.794 3.543-10.981 2.48-3.188 1.771-7.794-1.417-9.92-1.771-1.417-4.605-1.771-6.731-1.062-9.211 3.188-19.13-1.417-22.318-10.628-1.417-3.897-1.417-7.794 0-11.69 1.417-3.897-0.709-7.794-4.605-9.211-2.126-0.709-4.96-0.354-6.731 1.063-7.794 5.668-18.775 4.251-24.443-3.543-2.48-3.188-3.543-7.085-3.543-10.981 0-3.897-3.188-7.085-7.439-7.085-2.126 0-4.605 1.063-5.668 2.834-5.668 7.794-16.296 9.919-24.444 4.251-3.188-2.126-5.668-5.314-6.731-9.211v0c-1.063-3.897-5.314-6.022-8.856-4.605-2.126 0.709-3.897 2.48-4.605 4.605-2.834 9.211-12.753 14.524-21.964 11.69-3.543-1.063-7.085-3.543-9.21-6.73-2.48-3.188-6.731-3.897-10.274-1.417-1.771 1.417-2.834 3.543-2.834 5.668 0.354 9.565-7.439 17.713-17.004 17.712-3.897 0-7.794-1.063-10.982-3.542-3.188-2.48-7.794-1.771-9.919 1.417-1.417 1.771-1.771 4.605-1.063 6.731 3.188 9.211-1.417 19.13-10.627 22.317-3.897 1.417-7.794 1.417-11.691 0-3.897-1.417-7.794 0.709-9.21 4.606-0.709 2.126-0.354 4.96 1.063 6.731 5.668 7.794 4.251 18.775-3.543 24.443-3.188 2.48-7.085 3.543-10.982 3.543-3.897 0-7.085 3.188-7.085 7.439 0 2.126 1.063 4.605 2.834 5.668 7.794 5.668 9.919 16.296 4.251 24.443-2.126 3.188-5.314 5.668-9.21 6.731-3.897 1.063-6.022 5.314-4.606 8.856 0.709 2.126 2.48 3.897 4.606 4.606 9.211 2.834 14.524 12.753 11.69 21.963-1.063 3.543-3.543 7.085-6.731 9.211-3.188 2.48-3.897 6.731-1.417 10.273 1.417 1.771 3.543 2.834 5.668 2.834 9.565-0.354 17.713 7.439 17.713 17.004 0 3.897-1.063 7.794-3.543 10.982-2.48 3.188-1.771 7.794 1.417 9.919 1.771 1.417 4.605 1.771 6.731 1.063 9.211-3.188 19.13 1.417 22.318 10.628 1.417 3.897 1.417 7.794 0 11.69-1.417 3.897 0.709 7.794 4.605 9.211 2.126 0.709 4.96 0.354 6.731-1.063 7.794-5.668 18.775-4.251 24.444 3.542 2.48 3.188 3.543 7.085 3.542 10.982 0 3.897 3.188 7.085 7.085 7.44 2.48 0 4.605-1.063 6.023-3.189 3.543-4.605 8.856-7.439 14.524-7.439z" fill="#ffa458" fill-rule="nonzero" stroke="none" stroke-width="1" stroke-linecap="butt" stroke-linejoin="miter" stroke-miterlimit="10" stroke-dasharray="" stroke-dashoffset="0" font-family="none" font-weight="none" font-size="none" text-anchor="none" style="mix-blend-mode: normal" data-fill-palette-color="tertiary"></path></g><g transform="matrix(1,0,0,1,56,90)"><svg viewBox="0 0 208 180" height="180" width="208"><g><svg viewBox="0 0 208 180" height="180" width="208"><g><svg viewBox="0 0 208 180" height="180" width="208"><g><svg viewBox="0 0 208 180" height="180" width="208"><g><svg viewBox="0 0 208 180" height="180" width="208"><g transform="matrix(1,0,0,1,61.57359312880715,47.57359312880715)"><svg viewBox="0 0 84.8528137423857 84.8528137423857" height="84.8528137423857" width="84.8528137423857"><g><svg xmlns="http://www.w3.org/2000/svg" xmlns:xlink="http://www.w3.org/1999/xlink" version="1.1" x="0" y="0" viewBox="11.5 11.500003814697266 77 77" enable-background="new 0 0 100 100" xml:space="preserve" height="84.8528137423857" width="84.8528137423857" class="icon-o-0" data-fill-palette-color="accent" id="o-0"><path fill="#000000" d="M75.075 64.591c-21.906 0-39.666-17.759-39.666-39.667 0-4.712 0.826-9.231 2.333-13.424C22.442 17.003 11.5 31.638 11.5 48.833 11.5 70.741 29.259 88.5 51.167 88.5c17.195 0 31.83-10.942 37.333-26.242C84.307 63.765 79.789 64.591 75.075 64.591z" data-fill-palette-color="accent"></path></svg></g></svg></g><path d="M23.005 65.535V65.535L33.605 69.607 32.922 71.384 16.258 64.983 17.375 62.076 33.153 62.071 33.185 61.988 21.482 51.383 22.596 48.485 39.259 54.887 38.516 56.822 27.777 52.696C26.493 52.203 25.177 51.638 23.829 50.999V50.999L23.79 51.101 36.35 62.46 35.753 64.015 18.817 63.99 18.782 64.082C19.986 64.432 21.394 64.916 23.005 65.535ZM45.524 43.287C43.366 43.216 41.226 42.181 39.104 40.181 36.977 38.178 35.825 36.107 35.649 33.97 35.473 31.833 36.276 29.819 38.058 27.928 39.84 26.037 41.814 25.122 43.981 25.184 46.158 25.245 48.288 26.257 50.372 28.22 52.451 30.179 53.591 32.247 53.791 34.426 53.992 36.604 53.201 38.639 51.42 40.53 49.633 42.426 47.668 43.345 45.524 43.287ZM43.851 27.173C42.262 27.057 40.79 27.718 39.434 29.157 38.083 30.591 37.507 32.109 37.704 33.713 37.906 35.32 38.881 36.947 40.628 38.593 42.375 40.238 44.059 41.116 45.68 41.227 47.297 41.333 48.781 40.669 50.132 39.235 51.483 37.801 52.051 36.292 51.835 34.708 51.624 33.12 50.638 31.496 48.877 29.837 47.115 28.177 45.44 27.289 43.851 27.173ZM66.16 26.038C64.164 25.215 62.522 23.495 61.235 20.879 59.945 18.257 59.592 15.914 60.176 13.851 60.76 11.788 62.218 10.183 64.549 9.036 66.881 7.889 69.05 7.724 71.059 8.541 73.076 9.361 74.716 11.056 75.98 13.625 77.241 16.188 77.584 18.524 77.008 20.635 76.433 22.745 74.98 24.374 72.648 25.521 70.311 26.671 68.148 26.843 66.16 26.038ZM70.24 10.359C68.792 9.693 67.182 9.797 65.408 10.669 63.64 11.539 62.568 12.759 62.191 14.33 61.817 15.906 62.16 17.771 63.219 19.925 64.279 22.078 65.548 23.491 67.028 24.163 68.506 24.829 70.128 24.727 71.896 23.857 73.664 22.987 74.724 21.773 75.077 20.214 75.436 18.652 75.082 16.786 74.013 14.614 72.945 12.443 71.687 11.025 70.24 10.359ZM101.702 10.399L100.533 0.222 102.464 0 104.501 17.735 102.136 18.006 90.743 4.241 90.644 4.252C90.977 6.044 91.223 7.637 91.383 9.029V9.029L92.54 19.108 90.648 19.326 88.612 1.591 90.937 1.324 102.305 15.042 102.394 15.032C101.995 12.715 101.764 11.171 101.702 10.4ZM131.514 7.02C132.65 8.874 132.882 11.189 132.209 13.964 131.536 16.74 130.238 18.698 128.316 19.837 126.401 20.972 123.979 21.184 121.049 20.474V20.474L116.259 19.313 120.464 1.964 125.774 3.251C128.473 3.906 130.386 5.162 131.514 7.02ZM118.696 18.057L121.144 18.65C123.547 19.233 125.496 19.079 126.991 18.19 128.49 17.308 129.518 15.72 130.074 13.427 130.628 11.139 130.479 9.283 129.627 7.859 128.767 6.44 127.216 5.458 124.973 4.915V4.915L122.053 4.207ZM142.758 27.363L149.447 31.498 148.472 33.075 140.019 27.85 149.406 12.666 157.859 17.891 156.889 19.46 150.199 15.325 147.175 20.218 153.459 24.103 152.494 25.663 146.21 21.778ZM168.668 45.46L177.522 37.929 178.865 39.508 170.064 46.994C168.513 48.313 166.896 48.881 165.213 48.698 163.53 48.516 161.994 47.608 160.606 45.977 159.214 44.34 158.58 42.692 158.705 41.032V41.032C158.839 39.373 159.687 37.88 161.248 36.552V36.552L170.011 29.098 171.36 30.685 162.484 38.234C161.341 39.207 160.73 40.26 160.653 41.393 160.585 42.528 161.05 43.681 162.048 44.855 163.041 46.023 164.107 46.658 165.243 46.759 166.388 46.861 167.53 46.428 168.668 45.46ZM177.839 61.021L171.305 63.537 170.56 61.603 187.219 55.188 187.964 57.122 179.699 60.304 190.872 64.674 191.752 66.96 181.935 63.046 175.19 73.625 174.313 71.348 180.058 62.175ZM31.812 115.488V115.488L21.062 119.639 20.362 117.826 37.265 111.3 38.408 114.26 26.524 125.004 26.556 125.087 42.59 125.094 43.726 128.036 26.823 134.562 26.066 132.601 36.955 128.397C38.257 127.894 39.635 127.426 41.09 126.992V126.992L41.051 126.89 23.858 126.883 23.248 125.301 36.015 113.791 35.98 113.699C34.836 114.261 33.447 114.857 31.812 115.488ZM38.945 147.38C39.137 145.197 40.309 143.087 42.461 141.052 44.614 139.017 46.78 137.974 48.961 137.923 51.137 137.867 53.132 138.797 54.944 140.714 56.757 142.63 57.567 144.685 57.375 146.878 57.182 149.08 56.031 151.178 53.923 153.172 51.814 155.167 49.65 156.203 47.431 156.281 45.212 156.35 43.196 155.426 41.384 153.51 39.571 151.593 38.758 149.55 38.945 147.38ZM55.368 146.632C55.581 145.03 54.997 143.498 53.616 142.038 52.24 140.582 50.732 139.911 49.092 140.024 47.452 140.128 45.746 141.018 43.973 142.694 42.205 144.366 41.219 146.022 41.014 147.662 40.809 149.294 41.395 150.837 42.772 152.293 44.144 153.743 45.64 154.407 47.262 154.284 48.884 154.161 50.586 153.257 52.368 151.572 54.155 149.882 55.155 148.235 55.368 146.632ZM62.196 166.523C61.611 164.411 61.971 162.025 63.274 159.365 64.577 156.705 66.241 154.969 68.266 154.157 70.285 153.343 72.479 153.516 74.848 154.677 77.217 155.837 78.695 157.478 79.283 159.6 79.874 161.73 79.53 164.098 78.253 166.704 76.976 169.311 75.312 171.039 73.261 171.89 71.207 172.731 68.995 172.571 66.626 171.411 64.257 170.25 62.781 168.621 62.196 166.523ZM77.317 160.072C76.956 158.496 75.872 157.266 74.068 156.382 72.269 155.5 70.621 155.4 69.124 156.08 67.625 156.751 66.338 158.182 65.265 160.373 64.194 162.558 63.85 164.455 64.233 166.063 64.612 167.663 65.701 168.903 67.5 169.785 69.293 170.663 70.928 170.761 72.404 170.078 73.88 169.395 75.157 167.952 76.236 165.749 77.319 163.541 77.679 161.648 77.317 160.072ZM102.116 172.102L103.29 161.775 105.241 161.997 103.194 180 100.809 179.729 92.683 163.503 92.594 163.493C92.511 165.34 92.388 166.973 92.227 168.392V168.392L91.064 178.62 89.132 178.401 91.18 160.398 93.545 160.667 101.648 176.83 101.746 176.841C101.877 174.467 102 172.887 102.116 172.102ZM127.468 159.925C129.353 161.072 130.638 163.056 131.324 165.876 132.008 168.69 131.75 171.056 130.55 172.974 129.349 174.893 127.265 176.213 124.297 176.934V176.934L119.421 178.12 115.139 160.515 120.535 159.202C123.272 158.537 125.583 158.777 127.468 159.925ZM121.044 175.858L123.531 175.253C125.965 174.661 127.653 173.614 128.595 172.113 129.53 170.613 129.715 168.704 129.151 166.384 128.585 164.059 127.586 162.454 126.154 161.571 124.721 160.688 122.867 160.523 120.593 161.076V161.076L117.625 161.798ZM147.861 165.264L154.651 161.067 155.642 162.67 147.054 167.978 137.528 152.565 146.116 147.257 147.101 148.852 140.31 153.049 143.376 158.009 149.754 154.068 150.734 155.653 144.357 159.595ZM169.382 139.477L160.401 131.82 161.771 130.213 170.699 137.824C172.269 139.163 173.099 140.691 173.189 142.41 173.274 144.124 172.611 145.809 171.199 147.464 169.788 149.12 168.242 150.021 166.561 150.169V150.169C164.878 150.298 163.244 149.688 161.659 148.336V148.336L152.776 140.764 154.14 139.164 163.144 146.839C164.301 147.826 165.454 148.262 166.604 148.147 167.758 148.036 168.841 147.387 169.853 146.2 170.866 145.012 171.328 143.838 171.24 142.677 171.153 141.526 170.534 140.459 169.382 139.477ZM177.186 123.239L183.808 125.802 183.046 127.772 166.148 121.233 166.91 119.263 175.299 122.509 169.877 111.596 170.768 109.293 175.485 118.923 187.766 115.572 186.872 117.885 176.297 120.864ZM16.248 92.17C16.248 88.348 19.347 85.249 23.169 85.249 26.992 85.249 30.091 88.348 30.091 92.17 30.091 95.993 26.992 99.092 23.169 99.092 19.347 99.092 16.248 95.993 16.248 92.17ZM176.912 92.17C176.912 88.348 180.011 85.249 183.833 85.249 187.656 85.249 190.755 88.348 190.755 92.17 190.755 95.993 187.656 99.092 183.833 99.092 180.011 99.092 176.912 95.993 176.912 92.17Z" fill="#000000" data-fill-palette-color="primary"></path></svg></g></svg></g></svg></g></svg></g></svg></g></svg></g><defs></defs></svg><rect width="320" height="360" fill="none" stroke="none" visibility="hidden"></rect></g></svg></g></svg>