<svg xmlns="http://www.w3.org/2000/svg" version="1.1" xmlns:xlink="http://www.w3.org/1999/xlink" xmlns:svgjs="http://svgjs.dev/svgjs" width="1000" height="1000" viewBox="0 0 1000 1000"><rect width="1000" height="1000" fill="#ffffff"></rect><g transform="matrix(0.7,0,0,0.7,150,281.25)"><svg viewBox="0 0 512 320" data-background-color="#ffffff" preserveAspectRatio="xMidYMid meet" height="625" width="1000" xmlns="http://www.w3.org/2000/svg" xmlns:xlink="http://www.w3.org/1999/xlink"><g id="tight-bounds" transform="matrix(1,0,0,1,0,0)"><svg viewBox="0 0 512 320" height="320" width="512"><g><svg></svg></g><g><svg viewBox="0 0 512 320" height="320" width="512"><g><path transform="translate(256,160) scale(160,160)" d="M-1 0c0-0.552 0.448-1 1-1 0.552 0 1 0.448 1 1 0 0.552-0.448 1-1 1-0.552 0-1-0.448-1-1z" fill="#07770b" fill-rule="nonzero" stroke="none" stroke-width="1" stroke-linecap="butt" stroke-linejoin="miter" stroke-miterlimit="10" stroke-dasharray="" stroke-dashoffset="0" font-family="none" font-weight="none" font-size="none" text-anchor="none" style="mix-blend-mode: normal" data-fill-palette-color="tertiary"></path></g><g transform="matrix(1,0,0,1,76.80000000000001,20)"><svg viewBox="0 0 358.4 280" height="280" width="358.4"><g><svg viewBox="0 0 358.4 280" height="280" width="358.4"><g><svg viewBox="0 0 358.4 280" height="280" width="358.4"><g><svg viewBox="0 0 358.4 280" height="280" width="358.4"><g><svg viewBox="0 0 358.4 280" height="280" width="358.4"><g transform="matrix(1,0,0,1,125.5640219966815,74.00336708925556)"><svg viewBox="0 0 107.27195600663696 131.99326582148888" height="131.99326582148888" width="107.27195600663696"><g><svg xmlns="http://www.w3.org/2000/svg" xmlns:xlink="http://www.w3.org/1999/xlink" version="1.1" x="0" y="0" viewBox="7.502472441981836 3.519 103.99652755801816 127.963" enable-background="new 0 0 119 135" xml:space="preserve" height="131.99326582148888" width="107.27195600663696" class="icon-an-0" data-fill-palette-color="quaternary" id="an-0"><g fill="#ffffff" data-fill-palette-color="quaternary"><path fill="#ffffff" d="M93.449 22.15c-0.318 0-0.643-0.077-0.944-0.239-0.974-0.523-1.338-1.736-0.815-2.708l5.379-10.008c0.522-0.973 1.734-1.339 2.709-0.815 0.973 0.523 1.338 1.736 0.814 2.708l-5.379 10.008C94.853 21.768 94.162 22.15 93.449 22.15z" data-fill-palette-color="quaternary"></path></g><g fill="#ffffff" data-fill-palette-color="quaternary"><path fill="#ffffff" d="M66.086 23.642c-0.632 0-1.254-0.299-1.643-0.856l-6.499-9.326c-0.631-0.906-0.409-2.153 0.498-2.785 0.908-0.632 2.153-0.408 2.785 0.498l6.499 9.326c0.632 0.906 0.409 2.153-0.497 2.785C66.879 23.525 66.48 23.642 66.086 23.642z" data-fill-palette-color="quaternary"></path></g><g fill="#ffffff" data-fill-palette-color="quaternary"><path fill="#ffffff" d="M78.049 20.414c-1.104 0-2-0.896-2-2V5.519c0-1.104 0.896-2 2-2 1.105 0 2 0.896 2 2v12.895C80.049 19.518 79.154 20.414 78.049 20.414z" data-fill-palette-color="quaternary"></path></g><g fill="#ffffff" data-fill-palette-color="quaternary"><path fill="#ffffff" d="M62.096 131.482c-3.67 0-7.146-1.36-9.843-3.84-0.144-0.083-0.279-0.185-0.401-0.307l-11.359-11.35c-0.015-0.015-0.029-0.03-0.044-0.045-0.244-0.195-0.484-0.411-0.728-0.655-0.993-0.995-1.726-2.152-2.181-3.439-0.251-0.711-0.081-1.502 0.439-2.047 0.521-0.545 1.305-0.752 2.024-0.534 0.384 0.116 0.796 0.175 1.225 0.175 1.469 0 2.982-0.672 4.151-1.843 1.069-1.069 1.72-2.408 1.832-3.771 0.103-1.239-0.263-2.344-1.03-3.11l-0.485-0.494c-0.771-0.786-0.762-2.047 0.021-2.821 0.781-0.773 2.042-0.772 2.821 0.007 0.881 0.88 2.082 1.365 3.383 1.365 1.452 0 2.898-0.614 3.969-1.686 1.046-1.046 1.647-2.4 1.692-3.815 0.044-1.365-0.44-2.624-1.361-3.544L55.9 89.405c-0.779-0.781-0.778-2.046 0.002-2.826s2.045-0.782 2.826-0.002c1.024 1.021 2.389 1.584 3.842 1.584 1.451 0 2.812-0.562 3.832-1.582 2.121-2.123 2.126-5.574 0.01-7.693L15.323 27.797c-0.015-0.015-0.03-0.03-0.044-0.045-0.01-0.009-0.019-0.018-0.028-0.027-1.814-1.812-2.798-4.183-2.8-6.705-0.001-2.521 0.979-4.891 2.759-6.673 1.786-1.785 4.157-2.769 6.679-2.769 2.523 0 4.893 0.984 6.673 2.771 0.014 0.014 0.03 0.029 0.046 0.045 0.018 0.017 0.036 0.034 0.054 0.051l20.468 20.473c0.018 0.017 0.038 0.036 0.058 0.057 0.015 0.014 0.029 0.027 0.043 0.042l25.567 25.568c1.429 0.658 3.168 0.658 4.597 0l15.996-15.998c1.779-1.785 4.15-2.769 6.676-2.769 2.518 0 4.885 0.979 6.664 2.759 1.785 1.786 2.768 4.158 2.768 6.679 0 2.521-0.983 4.892-2.77 6.672l-0.152 0.149L93.77 72.887c2.723 8.312 5.775 18.274 5.775 21.146 0 4.084-1.74 8.009-4.772 10.77l-21.974 21.974C70.107 129.741 66.183 131.482 62.096 131.482zM54.358 124.186c0.123 0.075 0.24 0.165 0.346 0.27 1.99 1.952 4.615 3.027 7.392 3.027 2.962 0 5.809-1.264 7.809-3.466l22.107-22.107c2.27-2.069 3.533-4.917 3.533-7.877 0-1.82-2.34-10.088-5.959-21.063-0.236-0.717-0.049-1.506 0.486-2.04l15.729-15.73 1.492 1.339-1.418-1.41c1.057-1.056 1.623-2.419 1.623-3.87 0-1.453-0.566-2.821-1.596-3.852-1.023-1.022-2.387-1.586-3.836-1.586-1.454 0-2.819 0.566-3.845 1.595l-16.23 16.232c-0.143 0.143-0.306 0.263-0.483 0.356-2.701 1.42-6.121 1.42-8.822 0-0.179-0.094-0.342-0.214-0.484-0.356L46.55 37.994c-0.114-0.091-0.219-0.195-0.311-0.31L25.988 17.429c-0.113-0.089-0.216-0.191-0.308-0.303-1.072-1.02-2.391-1.548-3.792-1.548-1.453 0-2.82 0.567-3.85 1.597-1.025 1.025-1.589 2.39-1.588 3.842 0.001 1.443 0.561 2.801 1.576 3.827 0.087 0.074 0.167 0.154 0.24 0.24L69.24 76.059c3.676 3.679 3.671 9.666-0.009 13.349-1.776 1.776-4.142 2.754-6.661 2.754-0.35 0-0.695-0.019-1.038-0.056 0.046 0.424 0.062 0.856 0.048 1.293-0.077 2.436-1.094 4.75-2.861 6.518-1.841 1.842-4.255 2.856-6.797 2.856-0.241 0-0.48-0.009-0.717-0.027 0.035 0.46 0.034 0.931-0.006 1.41-0.19 2.306-1.252 4.532-2.99 6.27-1.367 1.369-3.056 2.321-4.83 2.753 0.064 0.067 0.123 0.14 0.177 0.215L54.358 124.186z" data-fill-palette-color="quaternary"></path></g><g fill="#ffffff" data-fill-palette-color="quaternary"><path fill="#ffffff" d="M41.228 113.442c-0.821 0-1.621-0.116-2.379-0.345-1.207-0.347-2.285-0.978-3.177-1.869L9.791 85.356c-0.011-0.011-0.021-0.021-0.032-0.032-0.02-0.02-0.036-0.035-0.048-0.048-3.23-3.243-2.875-8.869 0.789-12.545 1.929-1.922 4.483-3.021 7.014-3.021 2.14 0 4.108 0.787 5.543 2.216 0.024 0.023 0.048 0.047 0.07 0.07 0.004 0.004 0.009 0.009 0.013 0.013l24.67 24.67c0.037 0.036 0.071 0.074 0.105 0.113l1.11 1.111c1.598 1.598 2.375 3.824 2.175 6.254-0.19 2.306-1.252 4.532-2.99 6.27C46.295 112.343 43.75 113.442 41.228 113.442zM12.787 82.696L38.5 108.399c0.407 0.406 0.904 0.696 1.478 0.86 1.809 0.549 3.891-0.147 5.402-1.66 1.07-1.069 1.72-2.408 1.833-3.771 0.103-1.239-0.264-2.344-1.03-3.11l-1.192-1.192c-0.042-0.042-0.083-0.086-0.122-0.131L20.457 74.983c-0.108-0.087-0.208-0.186-0.296-0.294-0.858-0.808-1.908-0.979-2.647-0.979-1.48 0-3.006 0.675-4.186 1.851-2.075 2.081-2.45 5.111-0.863 6.811C12.584 82.467 12.692 82.576 12.787 82.696z" data-fill-palette-color="quaternary"></path></g><g fill="#ffffff" data-fill-palette-color="quaternary"><path fill="#ffffff" d="M51.921 102.774c-2.369 0-4.575-0.901-6.211-2.537l-0.722-0.714c-0.042-0.041-0.083-0.085-0.121-0.13L17.041 71.566l1.325-1.504-1.415 1.414c-1.714-1.715-2.617-4.025-2.541-6.507 0.074-2.436 1.087-4.748 2.853-6.512 1.846-1.847 4.264-2.863 6.806-2.863 2.371 0 4.581 0.903 6.221 2.545L59.051 86.9c1.709 1.709 2.609 4.018 2.529 6.5-0.077 2.435-1.094 4.749-2.861 6.517C56.904 101.732 54.427 102.774 51.921 102.774zM47.914 96.792l0.617 0.609c0.888 0.888 2.09 1.373 3.391 1.373 1.452 0 2.898-0.614 3.969-1.686 1.046-1.046 1.647-2.401 1.692-3.816 0.044-1.365-0.44-2.624-1.362-3.545l-0.729-0.731-28.03-28.028c-0.886-0.886-2.09-1.373-3.393-1.373-1.474 0-2.886 0.601-3.978 1.692-1.042 1.041-1.64 2.392-1.683 3.805-0.042 1.367 0.445 2.63 1.372 3.557l3.279 3.279 24.75 24.75C47.846 96.714 47.881 96.752 47.914 96.792z" data-fill-palette-color="quaternary"></path></g><g fill="#ffffff" data-fill-palette-color="quaternary"><path fill="#ffffff" d="M62.57 92.162c-2.52 0-4.887-0.978-6.667-2.753l-0.412-0.413-30.12-30.119c-0.02-0.02-0.04-0.04-0.059-0.061-0.024-0.023-0.049-0.049-0.075-0.076-3.634-3.646-3.639-9.627 0.022-13.301 1.787-1.787 4.159-2.771 6.681-2.771s4.894 0.983 6.679 2.769l30.623 30.621c3.674 3.679 3.668 9.667-0.011 13.349C67.455 91.184 65.09 92.162 62.57 92.162zM28.312 56.16l30.42 30.42c1.022 1.019 2.386 1.582 3.839 1.582 1.451 0 2.812-0.562 3.832-1.583 2.121-2.123 2.127-5.574 0.01-7.693l-30.621-30.62c-1.03-1.029-2.397-1.597-3.851-1.597s-2.82 0.567-3.85 1.597c-2.091 2.098-2.102 5.51-0.036 7.635C28.148 55.979 28.234 56.066 28.312 56.16z" data-fill-palette-color="quaternary"></path></g></svg><g></g></g></svg></g><path d="M51.771 77.516L78.582 85.238 77.125 88.94 69.072 86.376 56.923 82.978 56.81 83.264 70.854 96.471 69.556 99.766 50.468 99.371 50.326 99.731 61.157 105.393 69.121 109.265 67.74 112.772 42.956 99.899 44.828 95.146 49.172 95.46 64.846 95.917 64.973 95.594 53.188 84.908 49.917 82.223ZM75.776 44.189C78.4 41.39 81.285 40.043 84.433 40.147 87.575 40.247 90.746 41.796 93.945 44.794V44.794C97.4 48.033 99.309 51.344 99.671 54.73 100.033 58.115 98.814 61.301 96.014 64.287V64.287C93.409 67.067 90.513 68.377 87.326 68.218 84.135 68.054 80.908 66.444 77.646 63.386V63.386C74.259 60.211 72.406 56.961 72.088 53.635 71.765 50.305 72.995 47.156 75.776 44.189ZM78.188 46.925C76.392 48.84 75.673 50.845 76.031 52.939 76.384 55.029 77.844 57.276 80.411 59.683V59.683C83.21 62.306 85.683 63.768 87.831 64.068 89.983 64.363 91.957 63.553 93.753 61.637V61.637C95.567 59.703 96.288 57.691 95.916 55.602 95.544 53.513 94.044 51.236 91.414 48.771V48.771C88.654 46.184 86.207 44.752 84.074 44.475 81.946 44.193 79.984 45.009 78.188 46.925ZM115.173 15.33C118.588 13.582 121.759 13.289 124.686 14.45 127.61 15.606 130.071 18.135 132.069 22.038V22.038C134.227 26.254 134.904 30.015 134.101 33.324 133.298 36.632 131.074 39.219 127.43 41.084V41.084C124.039 42.82 120.871 43.074 117.925 41.848 114.977 40.616 112.484 38.01 110.447 34.03V34.03C108.332 29.897 107.686 26.212 108.511 22.975 109.332 19.731 111.553 17.183 115.173 15.33ZM116.519 18.72C114.181 19.916 112.827 21.56 112.457 23.652 112.083 25.737 112.698 28.346 114.301 31.478V31.478C116.048 34.893 117.882 37.104 119.802 38.113 121.728 39.118 123.86 39.022 126.197 37.826V37.826C128.558 36.618 129.916 34.968 130.272 32.876 130.628 30.785 129.985 28.135 128.343 24.926V24.926C126.619 21.559 124.801 19.384 122.887 18.403 120.979 17.418 118.856 17.524 116.519 18.72ZM173.499 0L175.934 19.412 177.207 27.618 172.452 28.281 156.64 9.471 156.345 9.512 157.884 20.916 159.296 30.114 155.267 30.676 154.349 22.5 151.483 3.158 156.15 2.508 172.011 21.311 172.355 21.263 169.425 0.878ZM212.952 4.884C216.832 5.774 219.562 7.554 221.141 10.223 222.72 12.893 223.038 16.281 222.096 20.387V20.387C221.006 25.137 219.029 28.521 216.164 30.537 213.304 32.561 209.737 33.082 205.464 32.101V32.101C204.258 31.825 202.816 31.473 201.136 31.047 199.457 30.614 197.896 30.188 196.452 29.769V29.769L196.413 29.76 198.582 21.687 202.626 2.687 202.665 2.696ZM207.02 28.825C209.605 29.418 211.775 29.01 213.53 27.601 215.29 26.2 216.566 23.772 217.359 20.317V20.317C218.159 16.83 218.094 14.114 217.162 12.171 216.231 10.227 214.444 8.951 211.801 8.345V8.345C210.254 7.99 208.401 7.622 206.243 7.242V7.242L202.584 22.209 201.558 27.256C202.551 27.572 203.547 27.875 204.545 28.165 205.544 28.456 206.369 28.676 207.02 28.825ZM244.341 44.756L250.176 48.067 250.203 48.537 248.156 51.297 234.164 42.744 238.783 35.778 248.651 19.045 262.718 27.644 262.737 28.108 260.655 30.847 255.137 27.265 250.608 24.555 246.281 31.386 250.518 34.08 254.495 36.36 254.577 36.817 252.501 39.547 248.395 36.886 244.328 34.505 242.413 37.543 239.858 41.97ZM295.154 60.696L284.365 69.785 281.847 71.894C279.301 74.157 276.698 75.176 274.037 74.949 271.372 74.727 268.902 73.291 266.628 70.641V70.641C264.431 68.082 263.436 65.536 263.643 63.006 263.841 60.474 265.219 58.15 267.777 56.033V56.033L270.756 53.594 281.237 44.481 284.112 47.831 270.995 58.853C269.141 60.409 268.112 61.977 267.907 63.556 267.706 65.14 268.31 66.753 269.719 68.394V68.394C272.535 71.676 275.642 71.842 279.037 68.894V68.894L292.227 57.286ZM310.186 89.548L292.359 96.23 284.276 99.558 282.661 95.396 290.527 92.578 308.557 85.349ZM315.773 103.948L299.728 98.713C296.739 103.461 293.846 108.684 291.048 114.381V114.381L290.549 114.521C289.763 113.464 288.991 112.232 288.232 110.824V110.824L288.271 110.212C291.685 104.184 294.883 98.95 297.863 94.509V94.509L298.15 94.398 311.039 98.687 314.004 99.388ZM84.951 197.162L59.784 209.997 58.299 206.242 66.034 202.575 77.365 196.674 77.252 196.388 57.733 196.342 56.412 193.003 70.808 180.097 70.662 179.728 58.733 183.038 50.162 185.671 48.761 182.128 75.993 174.515 77.894 179.321 74.465 182.086 62.557 192.599 62.685 192.922 78.792 192.674 83.065 192.392ZM102.304 218.565C104.967 221.398 106.147 224.401 105.844 227.573 105.54 230.745 103.772 233.851 100.539 236.89V236.89C97.05 240.17 93.582 241.888 90.134 242.044 86.69 242.195 83.548 240.76 80.708 237.739V237.739C78.067 234.93 76.929 231.919 77.295 228.707 77.665 225.49 79.498 222.332 82.794 219.234V219.234C86.22 216.013 89.623 214.347 93.005 214.236 96.386 214.125 99.486 215.568 102.304 218.565ZM99.384 220.833C97.563 218.896 95.587 218.04 93.456 218.264 91.321 218.484 88.954 219.814 86.357 222.256V222.256C83.529 224.915 81.894 227.324 81.454 229.481 81.018 231.634 81.71 233.679 83.531 235.615V235.615C85.375 237.576 87.363 238.435 89.494 238.192 91.631 237.945 94.029 236.571 96.689 234.07V234.07C99.474 231.451 101.074 229.075 101.491 226.94 101.908 224.806 101.205 222.77 99.384 220.833ZM131.784 239.891C135.248 241.659 137.372 244.087 138.157 247.176 138.941 250.264 138.325 253.785 136.308 257.737V257.737C134.131 262.002 131.446 264.79 128.252 266.1 125.062 267.405 121.62 267.114 117.927 265.229V265.229C114.493 263.476 112.406 261.026 111.666 257.879 110.929 254.726 111.588 251.135 113.645 247.106V247.106C115.783 242.918 118.424 240.201 121.57 238.955 124.715 237.709 128.12 238.021 131.784 239.891ZM129.801 243.012C127.433 241.803 125.284 241.664 123.354 242.594 121.418 243.522 119.64 245.573 118.019 248.748V248.748C116.254 252.206 115.528 255.024 115.842 257.204 116.158 259.377 117.5 261.069 119.868 262.277V262.277C122.265 263.501 124.426 263.639 126.351 262.69 128.278 261.736 130.072 259.633 131.731 256.382V256.382C133.469 252.977 134.174 250.2 133.846 248.05 133.518 245.9 132.169 244.22 129.801 243.012ZM178.666 252.072L175.689 271.65 174.661 280 169.846 279.332 159.634 256.643 159.329 256.6 157.688 268.14 156.522 277.483 152.444 276.917 153.804 268.703 156.358 249.067 161.085 249.723 171.336 272.418 171.68 272.466 174.457 251.799ZM205.019 247.54C208.951 246.636 212.223 247.054 214.835 248.795 217.453 250.527 219.24 253.472 220.195 257.629V257.629C221.301 262.437 221 266.395 219.292 269.502 217.576 272.605 214.555 274.653 210.231 275.647V275.647C209.006 275.929 207.535 276.247 205.818 276.601 204.1 276.949 202.49 277.251 200.988 277.508V277.508L200.95 277.517 199.355 269.211 194.647 250.109 194.686 250.1ZM210.19 271.972C212.806 271.37 214.608 270.043 215.595 267.991 216.576 265.94 216.663 263.161 215.857 259.655V259.655C215.046 256.13 213.786 253.688 212.076 252.33 210.37 250.965 208.18 250.59 205.506 251.205V251.205C203.94 251.565 202.087 252.052 199.948 252.666V252.666L203.23 267.913 204.533 272.957C205.578 272.812 206.62 272.65 207.658 272.473 208.695 272.289 209.539 272.122 210.19 271.972ZM251.249 253.847L256.934 250.118 257.361 250.322 258.904 253.437 244.742 262.09 240.597 254.717 230.078 238.091 244.317 229.392 244.752 229.591 246.252 232.731 240.479 236.049 235.937 238.871 240.099 245.931 244.48 243.359 248.383 240.823 248.818 240.964 250.327 244.099 246.036 246.57 242.005 249.126 243.861 252.258 246.674 256.596ZM268.276 203.521L279.023 212.933 281.511 215.137C284.162 217.338 285.58 219.787 285.764 222.484 285.944 225.186 284.883 227.876 282.58 230.553V230.553C280.351 233.146 277.956 234.532 275.395 234.71 272.829 234.894 270.295 233.871 267.791 231.639V231.639L264.886 229.023 254.169 219.926 257.08 216.541 270.119 227.989C271.962 229.609 273.689 230.4 275.299 230.363 276.914 230.321 278.435 229.47 279.863 227.811V227.811C282.717 224.491 282.408 221.356 278.936 218.405V218.405L265.307 206.973ZM277.029 185.16L294.909 192.361 303.219 195.408 301.58 199.613 293.784 196.341 275.375 189.402ZM282.708 170.583L291.109 185.472C296.578 183.969 302.309 182.05 308.301 179.714V179.714L308.776 179.942C308.637 181.265 308.371 182.712 307.979 184.284V184.284L307.52 184.723C300.85 186.887 294.886 188.605 289.627 189.877V189.877L289.341 189.766 282.64 177.754 280.911 175.196ZM42.627 143.689C42.627 137.756 47.437 132.946 53.371 132.946 59.304 132.946 64.114 137.756 64.114 143.689 64.114 149.623 59.304 154.432 53.371 154.432 47.437 154.432 42.627 149.623 42.627 143.689ZM292.621 143.689C292.621 137.756 297.431 132.946 303.364 132.946 309.298 132.946 314.108 137.756 314.108 143.689 314.108 149.623 309.298 154.432 303.364 154.432 297.431 154.432 292.621 149.623 292.621 143.689Z" fill="#ffffff" data-fill-palette-color="quaternary"></path></svg></g></svg></g></svg></g><g></g></svg></g></svg></g></svg></g><defs></defs></svg><rect width="512" height="320" fill="none" stroke="none" visibility="hidden"></rect></g></svg></g></svg>