<?xml version="1.0" encoding="UTF-8"?>
<svg version="1.1" xmlns="http://www.w3.org/2000/svg" width="500" height="500">
<path d="M0 0 C165 0 330 0 500 0 C500 97.02 500 194.04 500 294 C335 294 170 294 0 294 C0 196.98 0 99.96 0 0 Z " fill="#FAFBFB" transform="translate(0,101)"/>
<path d="M0 0 C18.61985631 -0.56403577 37.23795026 -0.98546583 55.86461639 -1.24349213 C64.51651259 -1.36656343 73.1630636 -1.53385331 81.81152344 -1.81054688 C89.36207645 -2.05199666 96.90875832 -2.20509395 104.46306467 -2.25812387 C108.45488785 -2.28907656 112.43565385 -2.36007554 116.4238739 -2.53752136 C132.47327277 -3.22136614 145.99740542 -2.70766485 158.37208462 8.59777737 C169.16120002 19.17828762 173.04152225 30.17333287 173.32639265 45.34445143 C173.33769665 48.20201491 173.28571424 51.05636106 173.2238121 53.91316986 C173.16167822 57.69784735 173.21976526 61.4813587 173.25708008 65.26611328 C173.30037403 71.6155557 173.24426041 77.95823409 173.12890625 84.30664062 C172.99827158 91.57850794 173.04061311 98.8342302 173.17273998 106.10570717 C173.28279387 112.42296193 173.2965017 118.73544373 173.23421192 125.05335045 C173.19737517 128.79445107 173.19003588 132.52804365 173.27108765 136.26861572 C173.55358539 151.48588513 171.95396672 164.61731004 161.46985722 176.27753353 C151.61429333 186.50302379 141.78960645 190.44469253 127.70661068 190.77549839 C123.15890668 190.80420106 118.62731642 190.63555799 114.08489799 190.43345451 C110.05817661 190.28079497 106.03075512 190.26912879 102.00158691 190.24084473 C94.41219487 190.16697907 86.83135146 189.9711482 79.24568415 189.72845697 C70.59354994 189.45780872 61.94095066 189.32766468 53.28562069 189.20776653 C35.51894428 188.95858375 17.76016465 188.53799385 0 188 C0 185.03 0 182.06 0 179 C6.27 179 12.54 179 19 179 C19 122.9 19 66.8 19 9 C12.73 9 6.46 9 0 9 C0 6.03 0 3.06 0 0 Z " fill="#1B4359" transform="translate(64,154)"/>
<path d="M0 0 C18.42880892 -0.46946274 36.85604485 -0.82095827 55.28956223 -1.03624344 C63.85101192 -1.13891375 72.40872497 -1.27856789 80.96777344 -1.50878906 C88.43770446 -1.7096175 95.90492878 -1.83749759 103.37748456 -1.8817699 C107.32746663 -1.90761684 111.26971469 -1.96722464 115.21718597 -2.11460114 C141.03776741 -3.04245105 141.03776741 -3.04245105 150.44885254 4.55041504 C154.89494695 8.71999478 158.81487507 13.20553708 162.46788406 18.08153152 C163.86656755 20.10821121 163.86656755 20.10821121 166 21 C166 38.82 166 56.64 166 75 C165.34 75 164.68 75 164 75 C163.73719238 75.5887793 163.47438477 76.17755859 163.20361328 76.78417969 C161.94383819 79.10339241 160.61995979 80.60949403 158.7421875 82.453125 C158.11699219 83.071875 157.49179687 83.690625 156.84765625 84.328125 C155.87119141 85.27945313 155.87119141 85.27945313 154.875 86.25 C154.21628906 86.8996875 153.55757812 87.549375 152.87890625 88.21875 C151.25703357 89.81711727 149.6306719 91.41061897 148 93 C149.37364313 96.26213067 150.72854087 97.75295015 153.66015625 99.6953125 C159.79297875 104.28329972 165.00179015 108.88181977 166.86328125 116.56152344 C167.9332432 125.92369054 167.54358928 135.30003308 167.09863281 144.69372559 C166.93294829 148.56783164 166.86146876 152.44366205 166.78125 156.3203125 C166.61121074 163.88539969 166.33068997 171.4399186 166 179 C171.94 179 177.88 179 184 179 C184 181.97 184 184.94 184 188 C166.18 188 148.36 188 130 188 C130 187.34 130 186.68 130 186 C129.38125 185.7525 128.7625 185.505 128.125 185.25 C125.61289704 183.77229238 125.23892656 182.56044823 124 180 C123.01 179.67 122.02 179.34 121 179 C121 178.34 121 177.68 121 177 C120.34 177 119.68 177 119 177 C119 176.34 119 175.68 119 175 C118.34 175 117.68 175 117 175 C115.29220027 173.37550757 113.62449243 171.70779973 112 170 C111.67 169.67 111.34 169.34 111 169 C110.90570658 166.82194281 110.88257462 164.6407872 110.88647461 162.46069336 C110.88632858 161.77779739 110.88618256 161.09490143 110.8860321 160.39131165 C110.88673124 158.12412386 110.8945236 155.85701726 110.90234375 153.58984375 C110.90420793 152.02185613 110.90563183 150.45386793 110.90663147 148.88587952 C110.91045666 144.75123497 110.92028694 140.61662534 110.93133545 136.48199463 C110.94334418 131.52524283 110.94795181 126.56847939 110.95378876 121.61171722 C110.96349871 114.07445384 110.98265523 106.53726712 111 99 C98.46 99 85.92 99 73 99 C73 125.4 73 151.8 73 179 C79.27 179 85.54 179 92 179 C92 181.97 92 184.94 92 188 C61.64 188 31.28 188 0 188 C0 185.03 0 182.06 0 179 C6.27 179 12.54 179 19 179 C19 122.9 19 66.8 19 9 C12.73 9 6.46 9 0 9 C0 6.03 0 3.06 0 0 Z " fill="#1C4459" transform="translate(257,154)"/>
<path d="M0 0 C165 0 330 0 500 0 C500 97.02 500 194.04 500 294 C335 294 170 294 0 294 C0 196.98 0 99.96 0 0 Z M15 15 C15 102.12 15 189.24 15 279 C170.76 279 326.52 279 487 279 C487 191.88 487 104.76 487 15 C331.24 15 175.48 15 15 15 Z " fill="#1C4459" transform="translate(0,101)"/>
<path d="M0 0 C14.19 0 28.38 0 43 0 C43 56.1 43 112.2 43 170 C28.81 170 14.62 170 0 170 C0 113.9 0 57.8 0 0 Z " fill="#F7F8F9" transform="translate(137,163)"/>
<path d="M0 0 C12.54 0 25.08 0 38 0 C38 26.4 38 52.8 38 80 C25.46 80 12.92 80 0 80 C0 53.6 0 27.2 0 0 Z " fill="#FAFBFB" transform="translate(330,163)"/>
<path d="M0 0 C-1.40844718 3.21524305 -3.10344786 5.32183868 -5.625 7.75 C-6.57246094 8.67039063 -6.57246094 8.67039063 -7.5390625 9.609375 C-8.02117187 10.06828125 -8.50328125 10.5271875 -9 11 C-9.33 10.01 -9.66 9.02 -10 8 C-4.12244898 0 -4.12244898 0 0 0 Z " fill="#425C6A" transform="translate(416,234)"/>
</svg>
